<svg xmlns="http://www.w3.org/2000/svg" viewBox="0 0 64 64" role="img" aria-label="Berry Bliss favicon">
  <rect width="64" height="64" rx="12" fill="#c94972" />
  <g transform="translate(11 8)" stroke="#fff" stroke-width="3" fill="none" stroke-linecap="round" stroke-linejoin="round">
    <path d="M21 11C16 6 12 1 12-5" />
    <path d="M21 11C21 4 24 0 29-5" />
    <path d="M21 11C26 6 30 1 30-5" />
    <path d="M21 11C21 4 18 0 13-5" />
    <path d="M21 11C8 11 2 20 2 33c0 16 11 29 24 29s24-13 24-29c0-13-6-22-29-22Z" />
    <circle cx="14" cy="26" r="1.5" fill="#fff" stroke="none" />
    <circle cx="23" cy="35" r="1.5" fill="#fff" stroke="none" />
    <circle cx="32" cy="26" r="1.5" fill="#fff" stroke="none" />
  </g>
</svg>